<svg width="90" height="90" viewBox="0 0 90 90" fill="none" xmlns="http://www.w3.org/2000/svg">
<rect width="24" height="90" rx="10" fill="white"/>
<path d="M45 5C45 2.23858 47.2454 -0.0287045 49.9898 0.277493C54.1862 0.745704 58.3043 1.80319 62.2208 3.42542C67.6804 5.68688 72.6412 9.00156 76.8198 13.1802C80.9984 17.3588 84.3131 22.3196 86.5746 27.7792C88.836 33.2389 90 39.0905 90 45C90 50.9095 88.836 56.7611 86.5746 62.2208C84.3131 67.6804 80.9984 72.6412 76.8198 76.8198C72.6412 80.9984 67.6804 84.3131 62.2208 86.5746C58.3043 88.1968 54.1862 89.2543 49.9898 89.7225C47.2454 90.0287 45 87.7614 45 85L45 45V5Z" fill="white"/>
</svg>
